Coordinates
version=1
nRows=12
nColumns=34
inDegrees=no

Units are S.I. units (second, meters, Newtons, ...)
If the header above contains a line with 'inDegrees', this indicates whether rotational values are in degrees (yes) or radians (no).

endheader
time	pelvis_tilt	pelvis_list	pelvis_rotation	pelvis_tx	pelvis_ty	pelvis_tz	hip_flexion_r	hip_adduction_r	hip_rotation_r	knee_angle_r	ankle_angle_r	subtalar_angle_r	mtp_angle_r	hip_flexion_l	hip_adduction_l	hip_rotation_l	knee_angle_l	ankle_angle_l	subtalar_angle_l	mtp_angle_l	lumbar_extension	lumbar_bending	lumbar_rotation	arm_flex_r	arm_add_r	arm_rot_r	elbow_flex_r	pro_sup_r	arm_flex_l	arm_add_l	arm_rot_l	elbow_flex_l	pro_sup_l
1.12	-0.0771755	-0.0333815	0.00844422	1.14429	1.0474	-0.173034	0.414153	0.0307533	-0.141216	0.15295	-0.0509426	-0.0269758	-0.000407179	-0.0277886	-0.0268233	-0.0131319	0.145591	0.320969	0.145189	-0.000427101	-0.141093	-0.149422	-0.199246	-0.262627	-0.112191	-0.170518	0.655005	1.77738	0.17435	-0.517865	-0.171365	1.06781	1.67931
1.13	-0.0708358	-0.03735	0.00987173	1.15568	1.04672	-0.173803	0.399582	0.0356352	-0.143883	0.105905	-0.0464786	0.0201175	-0.000406337	-0.0466343	-0.0309373	-0.0184936	0.148114	0.33069	0.155214	-0.000426213	-0.145138	-0.137968	-0.194785	-0.260156	-0.111567	-0.179277	0.654256	1.77402	0.179232	-0.511759	-0.164125	1.08149	1.67985
1.14	-0.0647454	-0.0411323	0.010542	1.16715	1.046	-0.174505	0.387316	0.0403101	-0.143454	0.0683776	-0.0362671	0.0653434	-0.000405495	-0.0644538	-0.0348456	-0.0238229	0.152382	0.339802	0.163858	-0.000425324	-0.148685	-0.126557	-0.189861	-0.257606	-0.111324	-0.187444	0.653754	1.77088	0.182379	-0.50535	-0.157014	1.09496	1.67953
1.15	-0.0590909	-0.0448333	0.0103635	1.17869	1.04527	-0.175123	0.377495	0.0448931	-0.140136	0.0405618	-0.0215272	0.106981	-0.000404653	-0.0809549	-0.0386332	-0.0289977	0.158544	0.348148	0.170792	-0.000424436	-0.151541	-0.11511	-0.184397	-0.254965	-0.111508	-0.194898	0.653465	1.76812	0.183841	-0.498601	-0.150127	1.10812	1.67856
1.16	-0.0540275	-0.0485723	0.00936571	1.19033	1.04453	-0.175646	0.369887	0.0495361	-0.134472	0.0218443	-0.00398123	0.143708	-0.000403811	-0.095904	-0.0424178	-0.0339043	0.166694	0.355551	0.175782	-0.000423548	-0.153532	-0.103541	-0.178425	-0.252257	-0.112135	-0.201561	0.653352	1.76585	0.183633	-0.491483	-0.143571	1.12092	1.67721
1.17	-0.0496868	-0.0524678	0.00770062	1.20211	1.04379	-0.176071	0.363955	0.0544092	-0.127196	0.0109215	0.0143329	0.174617	-0.000402969	-0.109111	-0.0463382	-0.0384491	0.176881	0.361805	0.178701	-0.00042266	-0.154491	-0.0917724	-0.172087	-0.249548	-0.11318	-0.207401	0.653378	1.76413	0.181724	-0.483987	-0.137442	1.13333	1.67576
1.18	-0.0461605	-0.0566279	0.00560756	1.21405	1.04306	-0.176401	0.359031	0.0596676	-0.119119	0.00613633	0.0313514	0.199233	-0.000402127	-0.120429	-0.0505487	-0.0426023	0.189148	0.366691	0.179566	-0.000421772	-0.154289	-0.0797365	-0.165614	-0.246932	-0.114587	-0.212432	0.653518	1.76295	0.178056	-0.476135	-0.131797	1.14541	1.67443
1.19	-0.0435083	-0.0611341	0.0033684	1.22619	1.04235	-0.176646	0.354525	0.0654174	-0.110984	0.00584146	0.0452573	0.217409	-0.000401286	-0.129726	-0.0552036	-0.0464036	0.20356	0.369979	0.178526	-0.000420884	-0.152835	-0.0673906	-0.159295	-0.244501	-0.116279	-0.216694	0.653758	1.76228	0.172556	-0.46798	-0.126644	1.15718	1.67336
1.2	-0.0417637	-0.0660442	0.00125762	1.23855	1.04169	-0.17681	0.35007	0.0716962	-0.103349	0.00867758	0.0547101	0.229208	-0.000400444	-0.136854	-0.0604443	-0.0499546	0.220236	0.37143	0.175828	-0.000419997	-0.150079	-0.0547242	-0.153437	-0.242332	-0.118165	-0.220241	0.654092	1.76203	0.165156	-0.459612	-0.121939	1.16872	1.67262
1.21	-0.0409439	-0.071375	-0.000497118	1.25111	1.04108	-0.176899	0.345588	0.0784809	-0.0965258	0.0137179	0.0589966	0.234823	-0.000399603	-0.141639	-0.0664007	-0.0534066	0.239365	0.370792	0.171785	-0.000419109	-0.14601	-0.0417515	-0.148316	-0.240465	-0.120156	-0.223127	0.654519	1.76212	0.155818	-0.451138	-0.117591	1.18007	1.67225
1.22	-0.0410486	-0.0771152	-0.00174318	1.26384	1.04053	-0.176917	0.341255	0.0857082	-0.090572	0.0204714	0.0580773	0.23455	-0.000398762	-0.143878	-0.0731947	-0.0569401	0.261197	0.367806	0.166761	-0.000418222	-0.140663	-0.028506	-0.144139	-0.2389	-0.122175	-0.225395	0.655044	1.76247	0.14456	-0.442672	-0.113475	1.19123	1.67224
1.23	-0.0420576	-0.0832363	-0.00241174	1.27672	1.04005	-0.176868	0.337401	0.0933032	-0.0853314	0.0287729	0.052532	0.228784	-0.00039792	-0.143363	-0.0809472	-0.0607334	0.286035	0.362204	0.161147	-0.000417335	-0.134119	-0.0150301	-0.141017	-0.237606	-0.124159	-0.227077	0.655672	1.763	0.131469	-0.434318	-0.109444	1.20216	1.67257
